<?xml version="1.0" encoding="utf-8"?>
<!-- Generator: Adobe Illustrator 25.4.1, SVG Export Plug-In . SVG Version: 6.00 Build 0)  -->
<svg version="1.1" id="Capa_1" xmlns="http://www.w3.org/2000/svg" xmlns:xlink="http://www.w3.org/1999/xlink" x="0px" y="0px"
	 viewBox="0 0 90 90" style="enable-background:new 0 0 90 90;" xml:space="preserve">
<style type="text/css">
	.st0{fill:#1E1E1C;}
</style>
<g>
	<polygon class="st0" points="66.28,71.58 66.28,81.86 39.21,81.86 39.21,48.29 49.49,48.29 49.49,71.58 	"/>
	<polygon class="st0" points="87.47,77.44 76.55,81.87 51.58,45.4 51.57,45.39 51.44,45.21 52.44,44.28 52.45,44.27 74.33,23.8 
		66.65,16.12 49.49,16.12 49.49,40.19 39.21,40.19 39.21,5.84 70.92,5.84 74.31,9.23 81.84,16.76 89.11,24.04 81.6,31.07 
		65.11,46.5 	"/>
	<polygon class="st0" points="36.24,5.86 36.24,81.87 25.94,81.87 0.89,65.35 6.54,56.77 25.96,69.58 25.96,24.93 11.17,34.68 
		11.17,45.56 0.89,45.56 0.89,29.15 36.23,5.84 	"/>
</g>
</svg>
